<?xml version="1.0" encoding="UTF-8"?>
<svg id="Layer_1" data-name="Layer 1" xmlns="http://www.w3.org/2000/svg" xmlns:xlink="http://www.w3.org/1999/xlink" viewBox="0 0 600 600">
  <defs>
    <style>
      .cls-1 {
        fill: url(#linear-gradient-5);
      }

      .cls-1, .cls-2, .cls-3, .cls-4, .cls-5, .cls-6, .cls-7, .cls-8, .cls-9 {
        stroke-width: 0px;
      }

      .cls-2 {
        fill: none;
      }

      .cls-10 {
        fill: url(#linear-gradient);
        stroke-width: .75px;
      }

      .cls-10, .cls-11 {
        stroke: #fff;
        stroke-miterlimit: 10;
      }

      .cls-3 {
        fill: url(#radial-gradient);
        fill-rule: evenodd;
      }

      .cls-4 {
        fill: url(#linear-gradient-2);
      }

      .cls-12 {
        clip-path: url(#clippath);
      }

      .cls-5 {
        fill: #eee2ba;
      }

      .cls-6 {
        fill: #38393a;
      }

      .cls-7 {
        fill: #fff;
      }

      .cls-11 {
        fill: url(#linear-gradient-3);
      }

      .cls-8 {
        fill: url(#linear-gradient-4);
      }

      .cls-9 {
        fill: #f9a31a;
      }
    </style>
    <linearGradient id="linear-gradient" x1="266.34" y1="256.24" x2="344.63" y2="256.24" gradientUnits="userSpaceOnUse">
      <stop offset="0" stop-color="#fff"/>
      <stop offset=".09" stop-color="#d3cfc8"/>
      <stop offset=".19" stop-color="#a7a093"/>
      <stop offset=".29" stop-color="#837966"/>
      <stop offset=".39" stop-color="#675b44"/>
      <stop offset=".48" stop-color="#53452b"/>
      <stop offset=".56" stop-color="#47381c"/>
      <stop offset=".63" stop-color="#433417"/>
    </linearGradient>
    <linearGradient id="linear-gradient-2" x1="19.1" y1="360.95" x2="281.3" y2="360.95" gradientUnits="userSpaceOnUse">
      <stop offset=".07" stop-color="#433417"/>
      <stop offset=".24" stop-color="#eee2ba"/>
      <stop offset=".26" stop-color="#d3c7a0"/>
      <stop offset=".3" stop-color="#a79a77"/>
      <stop offset=".34" stop-color="#837554"/>
      <stop offset=".38" stop-color="#675839"/>
      <stop offset=".42" stop-color="#534426"/>
      <stop offset=".46" stop-color="#47381a"/>
      <stop offset=".5" stop-color="#433417"/>
      <stop offset=".85" stop-color="#eee2ba"/>
      <stop offset=".96" stop-color="#433417"/>
    </linearGradient>
    <clipPath id="clippath">
      <rect class="cls-2" x="18.47" y="236.72" width="221.59" height="78.92"/>
    </clipPath>
    <radialGradient id="radial-gradient" cx="385.9" cy="224.53" fx="385.9" fy="224.53" r="42.14" gradientTransform="translate(-631.72 -167.03) scale(1.97)" gradientUnits="userSpaceOnUse">
      <stop offset="0" stop-color="#433417"/>
      <stop offset=".28" stop-color="#eee2ba"/>
      <stop offset=".3" stop-color="#d3c7a0"/>
      <stop offset=".34" stop-color="#a79a77"/>
      <stop offset=".39" stop-color="#837554"/>
      <stop offset=".43" stop-color="#675839"/>
      <stop offset=".48" stop-color="#534426"/>
      <stop offset=".52" stop-color="#47381a"/>
      <stop offset=".56" stop-color="#433417"/>
      <stop offset=".8" stop-color="#eee2ba"/>
      <stop offset=".96" stop-color="#433417"/>
    </radialGradient>
    <linearGradient id="linear-gradient-3" x1="250.23" y1="321.78" x2="335.11" y2="362.98" gradientUnits="userSpaceOnUse">
      <stop offset=".12" stop-color="#eee2ba"/>
      <stop offset=".32" stop-color="#e99f87"/>
      <stop offset=".62" stop-color="#e24442"/>
      <stop offset=".75" stop-color="#e02027"/>
    </linearGradient>
    <linearGradient id="linear-gradient-4" x1="358.73" y1="185.41" x2="385.03" y2="185.41" gradientUnits="userSpaceOnUse">
      <stop offset=".05" stop-color="#fff"/>
      <stop offset=".19" stop-color="#c9c4bc"/>
      <stop offset=".34" stop-color="#999181"/>
      <stop offset=".48" stop-color="#746953"/>
      <stop offset=".59" stop-color="#594c32"/>
      <stop offset=".69" stop-color="#483a1e"/>
      <stop offset=".76" stop-color="#433417"/>
    </linearGradient>
    <linearGradient id="linear-gradient-5" x1="43.51" y1="220.3" x2="174.36" y2="220.3" gradientTransform="translate(18.22 -8.11) rotate(4.65)" gradientUnits="userSpaceOnUse">
      <stop offset="0" stop-color="#fff"/>
      <stop offset=".13" stop-color="#d4d1cb"/>
      <stop offset=".32" stop-color="#978e7e"/>
      <stop offset=".49" stop-color="#695d46"/>
      <stop offset=".61" stop-color="#4d3f24"/>
      <stop offset=".68" stop-color="#433417"/>
    </linearGradient>
  </defs>
  <g id="Mango-yellow">
    <path class="cls-9" d="M404.14,399.37c-2.67,0-5.6-5.3-6.46-7.2-1.47-3.09-1.81-6.33-1.81-9.66,0-10.53,1.72-16.23,4.83-26.36.95-3.17,1.72-6.41,2.67-9.58.34-1.19,4.83-14.25,4.83-16.47v-.24l-.43-.08c-1.29,0-3.1,1.42-3.96,2.22l-3.36,3.25c-1.12,1.11-5.86,10.61-6.46,11.72-1.03,1.9-1.9,3.8-2.84,5.7-.34.71-1.03,1.34-1.29,2.14-1.03,3.33-1.81,6.97-3.45,10.13-.6,1.19-1.29,2.38-1.72,3.64-.69,1.9-1.03,3.4-2.15,5.07-.69,1.03-.78,4.83-2.24,4.83-1.12,0-2.24-.87-3.19-.95-3.02-.16-3.71-1.03-4.05-3.64-.34-.32-.43-1.42-.43-1.82,0-3.48,1.29-7.36,1.98-10.76,1.64-8.31,3.19-17.5,3.19-25.89,0-.32-.09-.55-.09-.87,0-2.3,0-4.51-.17-6.73,0-.47-.17-2.93-.86-2.93-1.38,0-4.31,3.25-5,4.12-.52.63-.86,1.66-1.38,2.22-2.07,2.3-3.79,4.35-5.26,7.05-.69,1.27-1.12,3.01-2.07,4.19-.78,1.03-1.29,2.53-1.29,3.8h-.09c-.86,4.19-2.59,9.98-2.59,14.09,0,1.43-.09,2.77-.09,4.2,0,.95.17,1.82.17,2.77,0,.55-.26,1.03-.26,1.5,0,1.98-.34,6.65-.95,8.47-.17.48-.69,1.9-.69,2.38.09,1.19-3.96,8.87-5.6,8.87-.69,0-.86.16-2.07.16-.6,0-1.29-1.35-2.07-1.51-3.02-.63-2.5-.95-4.05-2.93-1.72-2.14-1.64-4.75-1.64-7.36,0-3.56,1.21-8.95,1.64-12.35.17-1.35.17-2.69.34-4.04.43-4.04,1.55-8.07,1.9-12.11.17-2.22.52-4.43.69-6.65.09-1.27,1.12-4.67,1.38-6.33-.09-.32.09-.95.09-1.27,0-1.43.6-2.69.6-4.04,0-.79-.69-1.11-.69-1.9,0-.71.34-1.34.34-2.06,0-1.11-1.21-4.59-1.29-5.62-.17-.16-.26-.55-.26-.79s0-.47.09-.71c.78-.31,1.03-.63,1.98-.79,2.41-.32,4.83-.4,4.83-.32,0,.32-.52.63-.52.79.26,0,1.12-.4,1.81-.4.34,0,1.12.24,1.38.47.52.08.78.48,1.12.79.69.71,1.29,1.35,1.9,2.14,1.64,2.14.86,4.99,2.07,7.05,0,.39-.52.79-.52,1.11.26.47.52.79.69,1.34.52,1.35.69,2.85.78,4.28l.52-.32c2.76-4.51,11.46-18.29,17.07-18.29,1.38,0,1.98.47,3.19,1.03,4.14,1.98,6.38,7.13,6.98,11.16.26,1.98.17,4.12.17,6.1,0,1.74-.34,3.88-.09,5.62-.34,1.27-.78,3.01-.78,4.27,4.4-6.81,13.36-24.54,23.1-24.54,2.84,0,7.07,2.85,7.07,5.62,1.9,2.53,1.72,3.49,1.72,6.41,0,8.15-1.55,15.99-3.53,23.83-.26,1.11-.78,2.06-1.12,3.25-.52,1.74-1.03,4.27-2.24,5.7,0,2.06-.34,2.14-.52,3.48l-.6.79c.26.32.52.63.52,1.03,0,.47-.34,1.11-.34,1.66-.17,2.3-.6,1.66-1.21,3.48-.52,1.58-.95,7.29-.95,9.1,0,2.46-.17,4.75,1.29,6.89-.09.71.6,1.43,1.38,1.43,4.65,0,15-20.19,16.89-20.74.17.55.26,1.11.26,1.66,0,.95-2.84,5.46-3.53,6.49-3.96,5.7-6.72,11.09-12.07,15.83-.95.87-2.24,2.77-3.79,2.93-1.03,0-3.45,1.11-4.4,1.11-1.12,0-2.07-.55-2.93-1.11Z"/>
    <path class="cls-9" d="M447.91,385.44c-.6-1.82-.43-3.72-.69-5.54.09-.16.17-.47.17-.63l-1.21,1.58c-.6,1.19-3.62,6.89-5.6,7.05-.78.55-2.24,1.74-3.28,1.74-5.43,0-10.43-3.25-10.43-8.55,0-6.49,7.15-18.52,14.14-21.38,1.81-1.19,5.69-2.53,8.02-2.53,1.9,0,7.33,3.25,7.33,5.22,0,.55-.43,1.03-1.03,1.19-5.34-.87-11.89,4.11-13.88,8.31l-1.9,3.64c-.52,1.03-2.41,4.43-2.5,5.38-.17.47-.43,1.11-.43,1.58l.09.08c.34,1.27.09,3.56,1.98,3.56,1.29,0,2.59-1.11,3.36-1.98,1.81-1.98,6.72-11.24,7.67-13.93.34-1.11,1.21-1.9,1.64-2.93,0-1.19,3.88-1.19,4.83-1.19,1.29,0,2.41.31,3.45,1.11,0,.08.09.24.09.4.52.39,1.03.79,1.03,1.34,0,.79-1.38,3.09-1.47,4.12-.17,1.35-.69,2.38-.78,3.8-.09,1.11-.43,2.14-.86,3.17-.43.95-2.5,6.57-2.5,6.65,0,.47.95.47,1.29.47,5.52,0,13.36-19.08,16.03-19.08.43,0,.86.39.86.79,0,.31,0,.55-.09.87-.09.4-9.57,13.86-10.6,15.44-1.64,2.46-5.34,5.38-8.62,5.38-2.67,0-5.34-3.01-6.12-5.15Z"/>
    <path class="cls-9" d="M467.55,382.91l-.34-.24c0-1.11.34-2.14.34-3.17,0-.55,0-1.11-.34-1.98.17-1.58.6-3.17,1.12-4.75-.52-2.37.69-4.35,1.55-6.57-.09-.16-.17-.47-.17-.63.86-2.22,3.45-7.68,3.45-10.37,0-.63-.17-1.5.86-1.5,1.9,0,5,1.98,6.21,3.25.17,2.06,1.64,4.35,1.64,6.1,0,.08-.34.95-.34,1.11,2.15-2.22,8.71-8.71,11.81-8.71s4.83,4.19,4.83,6.49c0,.4-.09.71-.17,1.11.52.47.86,1.11,1.29,1.74-.34,1.5-2.5,6.57-2.41,7.05l-2.67,6.57.09.4c-.69,1.27-1.64,3.48-1.81,4.91l.17.4c3.96-.63,8.71-6.18,10.6-9.18,1.03-1.66,4.91-9.98,6.72-9.98.6,0,.86.63.86,1.11,0,1.82-6.12,10.76-6.9,11.87-.78,1.9-3.53,4.75-5.6,5.78-.52.55-3.88,2.93-4.65,2.93-.43,0-.78-.24-1.21-.24-1.47,0-2.59.31-4.05-.16-3.53-1.19-5-5.62-5-8.71s1.98-8.47,3.36-11.24c.6-1.27,2.5-3.41,2.5-4.67v-.24c.17-.31.69-.95.69-1.19-.43.24-.86.63-1.21.95-1.55,0-4.31,2.85-4.65,4.2-2.84,3.4-4.14,7.44-6.21,11.24.17,1.11-.78,2.14-.78,3.25,0,.24.17.4-.09.55-.95,1.5-1.38,3.17-1.72,4.91-.09.55-.09,1.74-.95,1.74-.43,0-1.03-.24-1.47-.39-.09.47-.43,1.03-1.03,1.03-1.9,0-3.88-3.33-4.31-4.75Z"/>
    <path class="cls-9" d="M499.6,407.45c0-4.67,12.93-11.95,16.81-14.17,1.47-.87,1.98-1.66,2.67-3.01,0-.55.09-1.03.09-1.58,1.21-2.77,2.24-5.7,3.19-8.55-.78,1.11-4.14,5.07-5.09,5.62-.69.71-1.98,2.3-3.19,2.3-2.76,0-6.64-3.17-7.84-5.3-2.15-1.5-3.36-2.69-3.36-5.3,0-.55,0-1.03.17-1.58.95-7.84,4.14-11.24,9.48-17.26.6,0,.69-.16,1.29,0,1.29-.55,2.59-1.03,4.05-1.19,1.38-.87,3.02-1.5,4.74-1.5,1.9,0,4.57,2.53,4.57,4.27,0,.24,0,.63-.43.63-4.83,0-7.41,5.22-9.57,8.31-.17.71-.78,1.5-1.21,2.14-1.64,2.69-2.15,4.04-3.02,7.05-.09.4.26,1.82.34,2.3-.43.87-.95,1.98-.95,2.85,0,.55.17.95.78.95,3.96,0,8.02-9.66,8.88-11.64-.17-2.53,1.81-4.11,1.81-5.46,0-.95.26-4.04,1.9-4.04,3.19,0,5.34,3.48,6.03,5.94.6.71,1.12,1.43,1.12,2.3,0,.79-.26,1.58-.26,2.3,0,3.8-.69,7.52-2.24,11.01l1.64-1.27c6.55-5.07,9.65-8.71,13.79-15.04.26-.39.78-.71,1.29-.71s1.03.32,1.03.87c0,2.77-11.98,16.07-14.91,17.65-.78.39-5.17,3.25-5.34,3.72-1.38,3.48-2.41,6.73-4.57,9.98.09,1.58-1.03,3.09-1.98,4.27-.26.71-1.38,1.82-2.07,2.3-.34.47-.78.95-1.29,1.27-.52,1.11-2.5,3.56-3.88,3.56l-.17-.08c-.09,0-2.59.55-3.19.55-.26,0-.6,0-.86-.08-1.03.24-2.15.32-3.19.32-3.28,0-7.07-1.03-7.07-4.67ZM505.98,409.11c1.64,0,3.28-.79,4.31-1.98,1.72-2.06,4.65-7.68,5.69-10.29-2.5,1.5-14.22,7.92-14.22,10.29,0,1.34,3.1,1.98,4.22,1.98Z"/>
    <path class="cls-9" d="M550.1,389.79c-.52-.16-1.12-.08-1.64-.24-4.14-1.35-6.98-5.62-6.98-9.5,0-7.44.78-13.06,6.98-18.52,2.33-2.46,6.81-5.15,10.43-5.15s9.74,3.56,9.74,7.21c0,.71-1.21.87-1.72.87-3.62,0-8.79,2.53-11.12,5.07-3.1,3.41-3.71,6.81-4.22,11.08-.17,1.27-.6,2.38-.6,3.64,0,2.3,1.55,3.56,3.96,3.56.95,0,2.07-.24,3.02-.55s1.47-1.58,2.33-2.22c1.21-.87,2.59-2.53,2.93-3.88-1.81-1.03-3.88-4.99-3.88-6.89,0-2.3.78-5.54,3.79-5.54,1.47,0,3.28.55,3.62,2.06h.34c.26.24.43,1.74.43,2.06v.55c.34.24.78.87.78,1.27,0,.47-.34,1.03-.43,1.5.09.55.26,1.19.26,1.74,0,.32-1.29,2.53-1.55,3.01.43,0,.95.08,1.38.08,2.33,0,6.9-5.23,8.19-6.97.69-.95,3.53-5.54,3.96-5.94.17-.16.6-.24.86-.24.52,0,1.03.31,1.03.79,0,.39-.17.79-.43,1.11-1.38,3.8-8.88,13.78-13.88,13.78-.69,0-1.47.08-2.07-.24-.6.79-1.81,1.66-2.15,2.45-.69,1.66-4.83,4.19-6.64,4.59-1.12.24-2.15.47-3.36.47-1.72,0-1.98-.71-3.36-1.03ZM563.29,378l1.12,1.11c.52-.95.86-2.06,1.29-3.08-.26-.95-.6-3.88-2.33-3.88l-.26.16-.17.63c.09.24-.26,1.34-.26,1.82,0,1.11.69,2.22.6,3.25Z"/>
  </g>
  <g id="z">
    <path class="cls-5" d="M453.87,230.44c-4.96,0-9.21-1.59-12.77-4.77-3.56-3.18-5.34-7.79-5.34-13.83v-10.23l18.39.02v3.23c0,2.64.1,4.31,1.33,5.01,1.24.69,3.25,1.04,6.05,1.04h62.21l-57.35,82.75-4.63-4.88h61.06v19.52h-91.71c12.61-20.01,35.17-51.72,58.74-84.61l3.72,6.75h-39.7Z"/>
  </g>
  <g id="t">
    <path class="cls-5" d="M404.67,158.78h23.91v43h26.01v18.83h-26.01v78.32h-23.91v-78.32l-20.78-17.07-18.06-15.61,38.84,13.86v-43Z"/>
  </g>
  <g id="Bubble-small">
    <ellipse class="cls-5" cx="368.39" cy="183.9" rx="13.15" ry="13.17"/>
  </g>
  <g id="i">
    <path class="cls-5" d="M354.04,203.71h23.91v97.38h-23.91v-97.38Z"/>
  </g>
  <g id="b">
    <path class="cls-5" d="M300.41,304.93c-8.81,0-16.51-1.82-23.09-5.46-6.58-3.64-11.88-8.25-15.9-13.83l2.55-6.75v23.71h-23.91V122h23.68v104.36l-.46-8.6c3.71-4.96,9.13-8.99,16.25-12.08,7.12-3.1,15.09-4.65,23.91-4.65s16.59,2.1,23.78,6.29c7.2,4.18,12.93,10.11,17.19,17.77,4.25,7.67,6.38,16.77,6.38,27.31s-2.32,20.22-6.97,28.13c-4.64,7.9-10.79,13.94-18.44,18.13-7.66,4.18-15.98,6.27-24.97,6.27ZM295.32,284.7c5.88,0,11.17-1.39,15.89-4.18,4.72-2.79,8.47-6.66,11.26-11.62,2.79-4.96,4.19-10.54,4.19-16.75s-1.4-11.46-4.19-16.27c-2.78-4.8-6.53-8.64-11.26-11.5-4.72-2.87-10.01-4.31-15.89-4.31-5.11,0-9.84.93-14.17,2.79-4.33,1.86-7.97,4.42-10.91,7.67-2.94,3.26-5.02,7.05-6.26,11.39v20.69c1.24,4.33,3.33,8.17,6.26,11.5,2.94,3.33,6.54,5.93,10.79,7.79,4.26,1.86,9.02,2.79,14.29,2.79Z"/>
  </g>
  <g id="r">
    <path class="cls-5" d="M198.37,176.74l2.32,27.89-1.17-3.71c2.63-5.89,6.35-10.93,11.14-15.11,4.8-4.18,9.79-7.39,14.98-9.64,5.18-2.25,9.56-3.38,13.12-3.38l-1.15,23.71c-7.44-.46-13.9.94-19.4,4.19-5.49,3.25-9.79,7.58-12.89,13-3.09,5.43-4.63,11.24-4.63,17.44v43h-23.68v-97.38h21.36Z"/>
  </g>
  <g id="i-2" data-name="i">
    <path class="cls-6" d="M359.92,207.55h23.91v97.38h-23.91v-97.38Z"/>
  </g>
  <g id="r-2" data-name="r">
    <path class="cls-6" d="M202.74,179.42l2.32,27.89-1.17-3.71c2.63-5.89,6.35-10.93,11.14-15.11,4.8-4.18,9.79-7.39,14.98-9.64,5.18-2.25,9.56-3.38,13.12-3.38l-1.15,23.71c-7.44-.46-13.9.94-19.4,4.19-5.49,3.25-9.79,7.58-12.89,13-3.09,5.43-4.63,11.24-4.63,17.44v43h-23.68v-97.38h21.36Z"/>
  </g>
  <g id="b-2" data-name="b">
    <path class="cls-6" d="M305.93,308.77c-8.81,0-16.51-1.82-23.09-5.46s-11.88-8.25-15.9-13.83l2.55-6.75v23.71h-23.91V125.84h23.68v104.36l-.46-8.6c3.71-4.96,9.13-8.99,16.25-12.08,7.12-3.1,15.09-4.65,23.91-4.65s16.59,2.1,23.78,6.29c7.2,4.18,12.93,10.11,17.19,17.77,4.25,7.67,6.38,16.77,6.38,27.31s-2.32,20.22-6.97,28.13c-4.64,7.9-10.79,13.94-18.44,18.13-7.66,4.18-15.98,6.27-24.97,6.27ZM300.84,288.55c5.88,0,11.17-1.39,15.89-4.18,4.72-2.79,8.47-6.66,11.26-11.62,2.79-4.96,4.19-10.54,4.19-16.75s-1.4-11.46-4.19-16.27c-2.78-4.8-6.53-8.64-11.26-11.5-4.72-2.87-10.01-4.31-15.89-4.31-5.11,0-9.84.93-14.17,2.79-4.33,1.86-7.97,4.42-10.91,7.67-2.94,3.26-5.02,7.05-6.26,11.39v20.69c1.24,4.33,3.33,8.17,6.26,11.5,2.94,3.33,6.54,5.93,10.79,7.79,4.26,1.86,9.02,2.79,14.29,2.79Z"/>
  </g>
  <g id="t-2" data-name="t">
    <path class="cls-6" d="M411.95,165.43h23.91v43h26.01v18.83h-26.01v78.32h-23.91v-78.32l-20.78-17.07-18.06-15.61,38.84,13.86v-43Z"/>
  </g>
  <g id="z-2" data-name="z">
    <path class="cls-6" d="M461.58,238.34c-4.96,0-9.21-1.59-12.77-4.77-3.56-3.18-5.34-7.79-5.34-13.83v-10.23l18.39.02v3.23c0,2.64.1,4.31,1.33,5.01,1.24.69,3.25,1.04,6.05,1.04h62.21l-57.35,82.75-4.63-4.88h61.06v19.52h-91.71c12.61-20.01,35.17-51.72,58.74-84.61l3.72,6.75h-39.7Z"/>
  </g>
  <g id="Bubble-small-2" data-name="Bubble-small">
    <ellipse class="cls-10" cx="305.48" cy="256.24" rx="39.15" ry="39.19"/>
    <ellipse class="cls-7" cx="287.97" cy="239.3" rx="10.44" ry="10.45"/>
  </g>
  <path class="cls-4" d="M281.3,342.93c-28.06,53.8-78.18,90.07-121.71,90.07-56.91,0-125.07-61.99-140.49-144.09,24.84,70.65,90.24,121.36,145.76,121.36,39.97,0,85.04-26.27,116.44-67.34"/>
  <g class="cls-12">
    <path class="cls-3" d="M240.04,307.82c-23.04,4.82-51.42,7.67-82.13,7.67-77.01,0-139.44-17.9-139.44-39.99,0-18.28,42.79-33.7,101.23-38.47-49.53,5.98-84.29,19.98-84.29,36.3,0,21.76,61.75,39.39,137.91,39.39,24.21,0,46.94-1.78,66.72-4.91"/>
  </g>
  <g id="Maple">
    <path class="cls-11" d="M264.59,368.79c.15,0,.3.06.4.18l16.44,19.27,5.44-12.21c.08-.18.26-.29.47-.29l37.09,1.44c-1.57-2.71-3.14-5.38-4.7-7.94-.13-.23-.08-.51.13-.66h0l14.53-9.99-16.71-6.39c-.24-.09-.38-.36-.3-.6.83-2.8,1.65-5.75,2.47-8.77l-22.99,6.34c-.22.06-.45-.04-.57-.24-.11-.2-.07-.45.09-.6l11.93-10.88c4.89-4.46,9.78-8.92,14.67-13.38-3.37-1.05-6.69-2.06-9.88-2.98-.24-.07-.39-.3-.36-.55l2.51-18.52-17.32,6.97c-.23.09-.49,0-.62-.22-1.67-2.86-3.45-5.84-5.3-8.86-5.66,10.59-11.32,21.17-16.98,31.76-.11.2-.34.3-.56.24-.22-.06-.38-.27-.37-.5l.52-23.88c-2.69,1.51-5.34,3.04-7.89,4.55-.22.13-.51.07-.66-.15l-10.27-14.66-6.12,16.55c-.09.24-.35.37-.6.29-2.86-.88-5.83-1.76-8.84-2.62,3.3,11.26,6.61,22.52,9.92,33.78l.55,1.88c.06.19,0,.39-.16.52l-10.49,8.27,24.93,13"/>
  </g>
  <g id="Bubble-small-3" data-name="Bubble-small">
    <ellipse class="cls-8" cx="371.88" cy="185.41" rx="13.15" ry="13.17"/>
    <ellipse class="cls-7" cx="366" cy="179.72" rx="3.51" ry="3.51"/>
  </g>
  <g id="Back">
    <ellipse class="cls-5" cx="101.58" cy="220.3" rx="68.02" ry="68.29" transform="translate(-17.53 8.96) rotate(-4.65)"/>
  </g>
  <g id="Bubble">
    <ellipse class="cls-1" cx="108.93" cy="220.3" rx="65.42" ry="65.67" transform="translate(-17.5 9.56) rotate(-4.65)"/>
    <ellipse class="cls-7" cx="126.72" cy="183.59" rx="17.45" ry="17.51" transform="translate(-37.68 32.81) rotate(-12.86)"/>
  </g>
</svg>