<?xml version="1.0" encoding="UTF-8"?>
<svg id="Layer_1" data-name="Layer 1" xmlns="http://www.w3.org/2000/svg" xmlns:xlink="http://www.w3.org/1999/xlink" viewBox="0 0 600 600">
  <defs>
    <style>
      .cls-1 {
        fill: none;
      }

      .cls-1, .cls-2, .cls-3, .cls-4, .cls-5 {
        stroke-width: 0px;
      }

      .cls-2, .cls-6 {
        fill: #433417;
      }

      .cls-6 {
        stroke-width: .75px;
      }

      .cls-6, .cls-7 {
        stroke: #fff;
        stroke-miterlimit: 10;
      }

      .cls-3 {
        fill-rule: evenodd;
      }

      .cls-3, .cls-4 {
        fill: #38393a;
      }

      .cls-8 {
        clip-path: url(#clippath);
      }

      .cls-7 {
        fill: #e02027;
      }

      .cls-5 {
        fill: #fff;
      }
    </style>
    <clipPath id="clippath">
      <rect class="cls-1" x="28.48" y="236.01" width="232.13" height="82.57"/>
    </clipPath>
  </defs>
  <g id="i">
    <path class="cls-4" d="M386.19,205.49h25.05v101.9h-25.05v-101.9Z"/>
  </g>
  <g id="r">
    <path class="cls-4" d="M221.52,176.06l2.43,29.18-1.22-3.89c2.76-6.17,6.65-11.44,11.67-15.81,5.03-4.37,10.26-7.73,15.69-10.08,5.43-2.36,10.01-3.54,13.74-3.54l-1.21,24.81c-7.79-.48-14.57.98-20.32,4.38-5.76,3.4-10.26,7.93-13.5,13.61-3.24,5.68-4.85,11.76-4.85,18.25v44.99h-24.81v-101.9h22.37Z"/>
  </g>
  <g id="b">
    <path class="cls-4" d="M329.62,311.41c-9.23,0-17.3-1.9-24.19-5.71-6.89-3.81-12.45-8.63-16.66-14.47l2.68-7.06v24.81h-25.05V120h24.81v109.2l-.48-9c3.89-5.19,9.56-9.4,17.02-12.64,7.46-3.24,15.81-4.87,25.05-4.87s17.37,2.19,24.91,6.58c7.55,4.38,13.55,10.58,18.01,18.6,4.45,8.02,6.68,17.55,6.68,28.57s-2.43,21.16-7.3,29.44c-4.86,8.27-11.3,14.59-19.32,18.97-8.02,4.37-16.74,6.56-26.15,6.56ZM324.29,290.25c6.16,0,11.71-1.46,16.65-4.37,4.95-2.92,8.88-6.97,11.79-12.15,2.92-5.19,4.38-11.03,4.38-17.52s-1.46-11.99-4.38-17.02c-2.91-5.03-6.84-9.04-11.79-12.03-4.94-3-10.49-4.51-16.65-4.51-5.35,0-10.3.98-14.85,2.92-4.54,1.95-8.35,4.62-11.43,8.03-3.08,3.41-5.26,7.38-6.56,11.91v21.65c1.3,4.54,3.48,8.55,6.56,12.03,3.08,3.49,6.85,6.21,11.31,8.15,4.46,1.95,9.45,2.92,14.97,2.92Z"/>
  </g>
  <g id="t">
    <path class="cls-4" d="M440.68,161.43h25.05v44.99h27.24v19.7h-27.24v81.96h-25.05v-81.96l-21.77-17.86-18.91-16.34,40.69,14.5v-44.99Z"/>
  </g>
  <g id="z">
    <path class="cls-4" d="M492.68,237.72c-5.19,0-9.65-1.66-13.38-4.99-3.73-3.33-5.59-8.15-5.59-14.47v-10.7l19.27.02v3.38c0,2.76.1,4.51,1.4,5.24,1.3.73,3.41,1.09,6.33,1.09h65.17l-60.08,86.58-4.85-5.11h63.96v20.42h-96.08c13.21-20.94,36.84-54.11,61.53-88.53l3.9,7.06h-41.59Z"/>
  </g>
  <g id="Bubble-small">
    <circle class="cls-6" cx="329.16" cy="256.44" r="41.01"/>
    <circle class="cls-5" cx="310.81" cy="238.72" r="10.94"/>
  </g>
  <path class="cls-3" d="M303.82,347.15c-29.4,56.3-81.9,94.25-127.5,94.25-59.62,0-131.02-64.86-147.17-150.77,26.02,73.92,94.53,126.98,152.7,126.98,41.87,0,89.09-27.49,121.98-70.46"/>
  <g class="cls-8">
    <path class="cls-3" d="M260.59,310.41c-24.13,5.04-53.87,8.03-86.04,8.03-80.68,0-146.07-18.73-146.07-41.85,0-19.13,44.83-35.26,106.05-40.25-51.89,6.26-88.3,20.91-88.3,37.99,0,22.77,64.69,41.22,144.47,41.22,25.36,0,49.18-1.87,69.89-5.13"/>
  </g>
  <g id="Maple">
    <path class="cls-7" d="M286.31,374.21c.16,0,.31.06.42.18l17.22,20.16,5.7-12.78c.09-.19.28-.31.49-.3l38.86,1.5c-1.64-2.84-3.29-5.63-4.92-8.31-.14-.24-.08-.53.14-.69h0l15.22-10.45-17.5-6.68c-.25-.1-.39-.37-.32-.63.87-2.93,1.73-6.01,2.59-9.17l-24.09,6.64c-.23.07-.48-.04-.6-.25-.12-.21-.08-.47.1-.63l12.49-11.38c5.13-4.67,10.25-9.33,15.37-14-3.53-1.1-7-2.15-10.35-3.12-.25-.08-.41-.32-.38-.57l2.63-19.38-18.14,7.29c-.24.1-.51,0-.65-.23-1.75-2.99-3.62-6.11-5.56-9.27-5.93,11.08-11.86,22.16-17.79,33.23-.11.21-.36.31-.59.25-.23-.07-.39-.28-.39-.52l.54-24.98c-2.81,1.58-5.59,3.18-8.26,4.76-.23.14-.54.07-.69-.15l-10.76-15.34-6.41,17.31c-.09.25-.37.39-.63.31-3-.92-6.1-1.84-9.26-2.74,3.46,11.78,6.92,23.57,10.39,35.35l.58,1.97c.06.2,0,.41-.17.54l-10.99,8.65,26.11,13.6s-2.29-1.8-2.27-1.78c.1.08.16.18.19.3"/>
  </g>
  <g id="Bubble-small-2" data-name="Bubble-small">
    <circle class="cls-6" cx="398.71" cy="182.33" r="13.78"/>
    <circle class="cls-5" cx="392.55" cy="176.38" r="3.67"/>
  </g>
  <g id="Bubble">
    <ellipse class="cls-2" cx="120.73" cy="231.15" rx="68.53" ry="68.72" transform="translate(-25.68 15.35) rotate(-6.58)"/>
    <ellipse class="cls-5" cx="139.36" cy="192.75" rx="18.27" ry="18.33" transform="translate(-52.89 52.7) rotate(-18.06)"/>
  </g>
</svg>