<?xml version="1.0" encoding="UTF-8"?>
<svg id="Layer_1" data-name="Layer 1" xmlns="http://www.w3.org/2000/svg" xmlns:xlink="http://www.w3.org/1999/xlink" viewBox="0 0 600 600">
  <defs>
    <style>
      .cls-1 {
        fill: url(#linear-gradient-5);
      }

      .cls-1, .cls-2, .cls-3, .cls-4, .cls-5, .cls-6, .cls-7, .cls-8, .cls-9 {
        stroke-width: 0px;
      }

      .cls-2 {
        fill: none;
      }

      .cls-3 {
        fill: #f4876e;
      }

      .cls-10 {
        fill: url(#linear-gradient);
        stroke-width: .75px;
      }

      .cls-10, .cls-11 {
        stroke: #fff;
        stroke-miterlimit: 10;
      }

      .cls-4 {
        fill: url(#radial-gradient);
        fill-rule: evenodd;
      }

      .cls-5 {
        fill: url(#linear-gradient-2);
      }

      .cls-12 {
        clip-path: url(#clippath);
      }

      .cls-6 {
        fill: #eee2ba;
      }

      .cls-7 {
        fill: #38393a;
      }

      .cls-8 {
        fill: #fff;
      }

      .cls-11 {
        fill: url(#linear-gradient-3);
      }

      .cls-9 {
        fill: url(#linear-gradient-4);
      }
    </style>
    <linearGradient id="linear-gradient" x1="275.7" y1="252.73" x2="354.34" y2="252.73" gradientUnits="userSpaceOnUse">
      <stop offset="0" stop-color="#fff"/>
      <stop offset=".09" stop-color="#d3cfc8"/>
      <stop offset=".19" stop-color="#a7a093"/>
      <stop offset=".29" stop-color="#837966"/>
      <stop offset=".39" stop-color="#675b44"/>
      <stop offset=".48" stop-color="#53452b"/>
      <stop offset=".56" stop-color="#47381c"/>
      <stop offset=".63" stop-color="#433417"/>
    </linearGradient>
    <linearGradient id="linear-gradient-2" x1="27.36" y1="356.26" x2="290.72" y2="356.26" gradientUnits="userSpaceOnUse">
      <stop offset=".07" stop-color="#433417"/>
      <stop offset=".24" stop-color="#eee2ba"/>
      <stop offset=".26" stop-color="#d3c7a0"/>
      <stop offset=".3" stop-color="#a79a77"/>
      <stop offset=".34" stop-color="#837554"/>
      <stop offset=".38" stop-color="#675839"/>
      <stop offset=".42" stop-color="#534426"/>
      <stop offset=".46" stop-color="#47381a"/>
      <stop offset=".5" stop-color="#433417"/>
      <stop offset=".85" stop-color="#eee2ba"/>
      <stop offset=".96" stop-color="#433417"/>
    </linearGradient>
    <clipPath id="clippath">
      <rect class="cls-2" x="26.73" y="233.42" width="222.57" height="78.03"/>
    </clipPath>
    <radialGradient id="radial-gradient" cx="144.7" cy="261.42" fx="144.7" fy="261.42" r="88.07" gradientTransform="translate(.88 28.37) scale(.95 .93)" gradientUnits="userSpaceOnUse">
      <stop offset="0" stop-color="#433417"/>
      <stop offset=".28" stop-color="#eee2ba"/>
      <stop offset=".3" stop-color="#d3c7a0"/>
      <stop offset=".34" stop-color="#a79a77"/>
      <stop offset=".39" stop-color="#837554"/>
      <stop offset=".43" stop-color="#675839"/>
      <stop offset=".48" stop-color="#534426"/>
      <stop offset=".52" stop-color="#47381a"/>
      <stop offset=".56" stop-color="#433417"/>
      <stop offset=".8" stop-color="#eee2ba"/>
      <stop offset=".96" stop-color="#433417"/>
    </radialGradient>
    <linearGradient id="linear-gradient-3" x1="259.69" y1="317.24" x2="344.69" y2="358.5" gradientUnits="userSpaceOnUse">
      <stop offset=".12" stop-color="#eee2ba"/>
      <stop offset=".32" stop-color="#e99f87"/>
      <stop offset=".62" stop-color="#e24442"/>
      <stop offset=".75" stop-color="#e02027"/>
    </linearGradient>
    <linearGradient id="linear-gradient-4" x1="368.5" y1="182.7" x2="394.92" y2="182.7" gradientUnits="userSpaceOnUse">
      <stop offset=".05" stop-color="#fff"/>
      <stop offset=".19" stop-color="#c9c4bc"/>
      <stop offset=".34" stop-color="#999181"/>
      <stop offset=".48" stop-color="#746953"/>
      <stop offset=".59" stop-color="#594c32"/>
      <stop offset=".69" stop-color="#483a1e"/>
      <stop offset=".76" stop-color="#433417"/>
    </linearGradient>
    <linearGradient id="linear-gradient-5" x1="51.88" y1="217.19" x2="183.31" y2="217.19" gradientUnits="userSpaceOnUse">
      <stop offset="0" stop-color="#fff"/>
      <stop offset=".13" stop-color="#d4d1cb"/>
      <stop offset=".32" stop-color="#978e7e"/>
      <stop offset=".49" stop-color="#695d46"/>
      <stop offset=".61" stop-color="#4d3f24"/>
      <stop offset=".68" stop-color="#433417"/>
    </linearGradient>
  </defs>
  <g id="z">
    <path class="cls-6" d="M464.05,227.22c-4.98,0-9.26-1.57-12.83-4.71-3.58-3.14-5.36-7.7-5.36-13.67v-10.11l18.48.02v3.2c0,2.61.1,4.26,1.34,4.96,1.25.69,3.27,1.03,6.07,1.03h62.49l-57.61,81.81-4.65-4.83h61.33v19.3h-92.12c12.67-19.78,35.33-51.13,59-83.66l3.74,6.67h-39.88Z"/>
  </g>
  <g id="t">
    <path class="cls-6" d="M414.64,156.36h24.02v42.51h26.12v18.61h-26.12v77.44h-24.02v-77.44l-20.88-16.88-18.14-15.44,39.01,13.7v-42.51Z"/>
  </g>
  <g id="Bubble-small">
    <ellipse class="cls-6" cx="378.2" cy="181.2" rx="13.21" ry="13.02"/>
  </g>
  <g id="i">
    <path class="cls-6" d="M363.79,200.78h24.02v96.28h-24.02v-96.28Z"/>
  </g>
  <g id="b">
    <path class="cls-6" d="M309.92,300.87c-8.85,0-16.58-1.8-23.19-5.4-6.61-3.6-11.94-8.16-15.97-13.67l2.57-6.67v23.44h-24.02V120h23.79v103.18l-.46-8.5c3.73-4.9,9.17-8.89,16.32-11.94,7.15-3.06,15.16-4.6,24.02-4.6s16.66,2.07,23.89,6.21c7.24,4.14,12.99,9.99,17.26,17.57,4.27,7.58,6.41,16.58,6.41,27s-2.33,20-7,27.81c-4.66,7.81-10.84,13.79-18.53,17.93-7.69,4.13-16.05,6.2-25.08,6.2ZM304.8,280.87c5.9,0,11.22-1.37,15.96-4.13,4.74-2.76,8.51-6.59,11.31-11.49,2.8-4.9,4.2-10.42,4.2-16.56s-1.4-11.33-4.2-16.09c-2.79-4.75-6.56-8.54-11.31-11.37-4.74-2.84-10.06-4.26-15.96-4.26-5.13,0-9.88.92-14.23,2.76-4.35,1.84-8,4.37-10.96,7.59-2.95,3.22-5.04,6.97-6.29,11.26v20.46c1.25,4.29,3.34,8.08,6.29,11.37,2.96,3.3,6.57,5.86,10.84,7.7,4.28,1.84,9.06,2.76,14.35,2.76Z"/>
  </g>
  <g id="r">
    <path class="cls-6" d="M207.43,174.12l2.33,27.57-1.17-3.67c2.65-5.83,6.38-10.81,11.19-14.94,4.82-4.13,9.84-7.31,15.05-9.53,5.21-2.23,9.6-3.34,13.18-3.34l-1.16,23.44c-7.47-.46-13.97.92-19.48,4.14-5.52,3.21-9.84,7.5-12.94,12.86-3.1,5.36-4.65,11.11-4.65,17.24v42.51h-23.79v-96.28h21.45Z"/>
  </g>
  <g id="i-2" data-name="i">
    <path class="cls-7" d="M369.7,204.58h24.02v96.28h-24.02v-96.28Z"/>
  </g>
  <g id="r-2" data-name="r">
    <path class="cls-7" d="M211.82,176.77l2.33,27.57-1.17-3.67c2.65-5.83,6.38-10.81,11.19-14.94,4.82-4.13,9.84-7.31,15.05-9.53,5.21-2.23,9.6-3.34,13.18-3.34l-1.16,23.44c-7.47-.46-13.97.92-19.48,4.14-5.52,3.21-9.84,7.5-12.94,12.86-3.1,5.36-4.65,11.11-4.65,17.24v42.51h-23.79v-96.28h21.45Z"/>
  </g>
  <g id="b-2" data-name="b">
    <path class="cls-7" d="M315.46,304.67c-8.85,0-16.58-1.8-23.19-5.4-6.61-3.6-11.94-8.16-15.97-13.67l2.57-6.67v23.44h-24.02V123.8h23.79v103.18l-.46-8.5c3.73-4.9,9.17-8.89,16.32-11.94,7.15-3.06,15.16-4.6,24.02-4.6s16.66,2.07,23.89,6.21c7.24,4.14,12.99,9.99,17.26,17.57,4.27,7.58,6.41,16.58,6.41,27s-2.33,20-7,27.81c-4.66,7.81-10.84,13.79-18.53,17.93-7.69,4.13-16.05,6.2-25.08,6.2ZM310.35,284.67c5.9,0,11.22-1.37,15.96-4.13,4.74-2.76,8.51-6.59,11.31-11.49,2.8-4.9,4.2-10.42,4.2-16.56s-1.4-11.33-4.2-16.09c-2.79-4.75-6.56-8.54-11.31-11.37-4.74-2.84-10.06-4.26-15.96-4.26-5.13,0-9.88.92-14.23,2.76-4.35,1.84-8,4.37-10.96,7.59-2.95,3.22-5.04,6.97-6.29,11.26v20.46c1.25,4.29,3.34,8.08,6.29,11.37,2.96,3.3,6.57,5.86,10.84,7.7,4.28,1.84,9.06,2.76,14.35,2.76Z"/>
  </g>
  <g id="t-2" data-name="t">
    <path class="cls-7" d="M421.95,162.95h24.02v42.51h26.12v18.61h-26.12v77.44h-24.02v-77.44l-20.88-16.88-18.14-15.44,39.01,13.7v-42.51Z"/>
  </g>
  <g id="z-2" data-name="z">
    <path class="cls-7" d="M471.81,235.03c-4.98,0-9.26-1.57-12.83-4.71-3.58-3.14-5.36-7.7-5.36-13.67v-10.11l18.48.02v3.2c0,2.61.1,4.26,1.34,4.96,1.25.69,3.27,1.03,6.07,1.03h62.49l-57.61,81.81-4.65-4.83h61.33v19.3h-92.12c12.67-19.78,35.33-51.13,59-83.66l3.74,6.67h-39.88Z"/>
  </g>
  <g id="Bubble-small-2" data-name="Bubble-small">
    <ellipse class="cls-10" cx="315.02" cy="252.73" rx="39.32" ry="38.75"/>
    <ellipse class="cls-8" cx="297.43" cy="235.98" rx="10.48" ry="10.33"/>
  </g>
  <path class="cls-5" d="M290.72,338.44c-28.19,53.2-78.53,89.06-122.25,89.06-57.16,0-125.62-61.29-141.11-142.47,24.95,69.85,90.64,119.99,146.41,119.99,40.15,0,85.42-25.98,116.95-66.58"/>
  <g class="cls-12">
    <path class="cls-4" d="M249.28,303.73c-23.14,4.77-51.65,7.58-82.5,7.58-77.35,0-140.05-17.7-140.05-39.54,0-18.08,42.98-33.32,101.68-38.03-49.75,5.91-84.67,19.76-84.67,35.9,0,21.51,62.02,38.95,138.52,38.95,24.31,0,47.15-1.76,67.01-4.85"/>
  </g>
  <g id="Maple">
    <path class="cls-11" d="M273.94,364.01c.15,0,.3.06.4.17l16.51,19.05,5.47-12.07c.08-.18.26-.29.47-.28l37.26,1.42c-1.57-2.68-3.16-5.32-4.72-7.85-.14-.22-.08-.5.14-.65h0l14.59-9.87-16.78-6.32c-.24-.09-.38-.35-.3-.6.83-2.77,1.66-5.68,2.48-8.67l-23.09,6.27c-.22.06-.46-.04-.57-.23-.11-.2-.07-.44.09-.6l11.98-10.75c4.91-4.41,9.83-8.82,14.74-13.23-3.38-1.04-6.72-2.03-9.92-2.95-.24-.07-.39-.3-.36-.54l2.52-18.31-17.4,6.89c-.23.09-.49,0-.62-.21-1.68-2.83-3.47-5.77-5.33-8.76-5.68,10.47-11.37,20.94-17.06,31.4-.11.2-.34.29-.56.24-.22-.06-.38-.27-.37-.49l.52-23.61c-2.7,1.49-5.36,3-7.92,4.49-.22.13-.51.07-.66-.15l-10.31-14.49-6.15,16.36c-.09.24-.36.37-.6.29-2.87-.87-5.85-1.74-8.88-2.59,3.32,11.13,6.64,22.27,9.96,33.4l.55,1.86c.06.19,0,.39-.16.51l-10.54,8.18,25.04,12.85"/>
  </g>
  <g id="Bubble-small-3" data-name="Bubble-small">
    <ellipse class="cls-9" cx="381.71" cy="182.7" rx="13.21" ry="13.02"/>
    <ellipse class="cls-8" cx="375.8" cy="177.07" rx="3.52" ry="3.47"/>
  </g>
  <g id="Back">
    <path class="cls-6" d="M118.05,284.27c-37.49,4.26-71.39-22.32-75.72-59.37-4.33-37.05,22.54-70.53,60.03-74.79,37.49-4.26,71.39,22.32,75.72,59.37,4.33,37.05-22.54,70.53-60.03,74.79Z"/>
  </g>
  <g id="Bubble">
    <path class="cls-1" d="M125.14,281.7c-36.05,4.1-68.65-21.46-72.82-57.09-4.17-35.63,21.68-67.83,57.73-71.92,36.05-4.1,68.65,21.46,72.82,57.09,4.17,35.63-21.68,67.83-57.73,71.92Z"/>
    <path class="cls-8" d="M140.9,197.36c-9.2,2.96-19.1-2.02-22.11-11.11-3.01-9.09,2.01-18.86,11.21-21.82,9.2-2.96,19.1,2.02,22.11,11.11,3.01,9.09-2.01,18.86-11.21,21.82Z"/>
  </g>
  <g>
    <path class="cls-3" d="M357.85,396.29c-3.85-.88-8.07-.35-12.02-1.32-.75-.17-1.78-.7-1.78-1.58,0-.96.56-.79.84-1.05,1.41-1.84,1.78-2.54,4.5-2.54.57-1.75,1.31-3.42,1.31-5.34,0-1.58,0-3.15.19-4.73.66-5.26,2.72-10.34,3.48-15.6.56-3.94.75-8.23,1.88-12.09,1.41-4.91,1.97-11.39,2.63-16.38.47-3.68.66-7.27,1.31-10.95.56-2.54,1.5-4.99,1.97-7.45l.28-1.75c.28-.35.28-.79.38-1.22-.47-1.4.37-2.28,1.88-2.28,2.82,0,8.07,2.45,9.76,4.64,1.5.52,2.63,1.31,2.63,2.89,0,1.05-.56,2.28-1.03,3.24.28,1.23.28,2.54.28,3.86,0,5.43-.28,7.36-2.16,12.53l-.37,1.05c.37,1.14.56,2.28.56,3.5,0,1.05-.66,2.19-1.31,2.98-.56,4.12-2.07,9.02-2.07,13.14,0,.7.09,1.49.09,2.19-.09,2.54-1.41,8.68-1.88,11.48-.28,1.93-1.97,4.38-1.97,6.04-.47.7-3.48,7.1-3.48,7.36.28.17.57.35.57.61,0,.44-.47.79-.85,1.49-.28.26-.56.7-.75,1.05l-.28.18c-.28.44-.47.79-.84,1.05l-.09.35c.47.18,1.69.18,1.78-.26,5.73,1.05,11.92,2.19,17.83,2.19.47,0,1.03,0,1.5-.09l1.03-.35c.66,0,1.97-.44,2.91-.44,1.13,0,2.91.7,2.91,1.93,0,.79-.47,1.14-1.22,1.49-3.85.26-7.51,1.4-11.45,1.4-3.66,0-15.96-.52-18.96-1.22Z"/>
    <path class="cls-3" d="M410.42,414.86c0-.61.28-.88.94-.88.37,0,.94.18,1.22.44,2.91-.17,6.66-2.71,8.26-4.82,1.31-1.84,2.16-5.7,2.16-7.97,0-3.42-1.31-5.34-3.38-7.97-2.81-3.59-4.79-4.03-9.57-4.2-2.72,7.01-10.98,25.84-20.56,25.84-6.95,0-9.39-2.19-9.39-8.58,0-.79,0-1.49.1-2.28.28-2.46.84-4.73,2.06-6.92,2.82-5.34,10.8-12.79,17.65-12.79h.37c.28-1.05.47-2.1.75-3.15-.19-2.02-.09-2.1.56-4.03-2.72,1.67-2.35,4.91-7.88,4.91-2.53,0-6.1-3.15-6.1-5.52,0-.61.09-1.22.37-1.84-.66-1.14-.94-5.52-.94-6.83,0-1.66,1.03-3.15,1.03-4.91,0-.96,1.22-4.56,1.5-5.7.1-.17,0-1.31-.09-1.49.28-2.63,1.31-5.08,1.31-7.71,0-.52-.09-.96-.28-1.4,0-.44.28-.61.66-.61,3.19,0,8.54,3.24,8.73,6.4.19,2.45.47,4.99.47,7.45,0,.35-1.31,3.85-1.5,4.91-.37,1.66-1.41,5.52-1.31,7.01-.66,1.4-1.13,2.89-1.13,4.38,0,.26.19.79.47.87,2.07-.44,5.82-5.78,6.95-7.44,2.72-3.77,4.69-7.97,6.1-12.26.47-1.4.85-7.36,2.44-7.36,2.16,0,5.63,3.77,5.63,5.7,0,2.54-.37,4.99-.37,7.53,0,5.52-1.31,8.06-3.1,13.32-.75,2.1-1.88,6.4-3,8.5,7.79.09,14.92,8.32,14.92,15.33,0,3.07-1.5,6.13-3.1,8.76-.84,4.38-6.76,5.17-10.14,7.36-.37.26-.75.44-1.22.44-1.22,0-1.6-1.58-1.6-2.45ZM386.39,412.5c3.38-.44,4.41-5.95,6.1-9.72,1.22-2.54,5.82-10.42,5.82-10.95.28-1.14.66-2.46.75-3.5-8.73.96-15.21,10.34-15.21,18.13,0,1.93.19,5.34,2.53,6.04Z"/>
    <path class="cls-3" d="M424.87,368.08c0-2.36.47-5.34,1.31-7.53,2.07-5.17,9.67-17.26,16.62-17.26,1.22,0,2.82.35,3.38,1.58.84-.53,1.6-1.05,2.54-1.49,1.6.17,2.81,4.82,2.81,5.96,0,3.5-1.97,4.12-1.97,6.75,0,1.4.09,1.66-1.69,1.66-2.63,0-3.94-2.63-4.6-4.64-.56.61-.75,1.66-1.03,2.45-.38.96-1.22,2.1-1.69,3.07-2.25,4.47-4.5,8.32-4.5,13.4,0,2.63,1.13,7.62,4.79,7.62.38,0,.85-.17,1.13-.44,3.85,1.66,14.45-13.4,16.24-16.56.66-1.14,3.1-5.52,4.69-5.52.56,0,1.22.35,1.22.97,0,2.01-4.6,8.06-5.82,9.55-1.03,1.84-2.82,3.86-4.32,5.52-1.22,1.4-2.07,2.98-3.19,4.38-2.53,3.07-6.94,5.7-11.17,5.7-8.17,0-14.74-7.97-14.74-15.16Z"/>
    <path class="cls-3" d="M454.73,378.42c0-.97.1-1.93.38-2.89-.19-1.05-.56-2.28-.56-3.33,0-2.02,1.31-4.73,1.31-6.48,0-7.62,5.26-14.19,5.07-21.9,1.22-2.36,2.63-5.17,3.38-7.71.09-.17.19-.79.28-.96,2.07-3.68,3.85-7.01,5.26-10.86.19-.61.94-2.98,1.78-2.98,2.63,0,5.54,4.03,5.54,6.31,0,.87-.09,1.75-.37,2.63.66.79,1.88,2.54,1.88,3.59,0,3.15-2.54,5.08-4.04,7.54-.94,1.49-6.38,14.63-6.57,15.94,2.25-2.1,4.6-4.82,7.32-6.48,2.72-1.84,5.82-3.42,9.39-3.42,3.76,0,6.29,3.07,6.29,6.48,0,1.4-.47,2.8-1.03,4.03l.28,2.54-2.81,5.96c.19,1.84,0,3.77-1.5,4.99-.84,1.4-2.44,4.12-2.44,5.78,0,.7.19,1.05,1.03,1.05,5.07,0,12.86-11.56,14.92-15.24.66-1.31,3.1-6.22,4.88-6.22.57,0,.85.35.85.87,0,.7-.66,1.84-1.03,2.45-1.6,3.42-3.29,7.27-5.73,10.25-1.88,2.28-8.64,10.16-11.55,10.16-1.13,0-5.44-.53-6.38-1.05-3.57-.62-5.54-5.61-5.54-8.59,0-2.54,1.03-5.08,1.03-7.62l-.1-1.23c.47-1.05,3.48-8.23,3.48-10.16,0-.18-.1-.27-.28-.27-1.31.88-6.85,5.08-6.85,6.31v.44c-1.22,2.19-2.72,4.2-4.03,6.31.47,1.66.19,3.68.37,5.34-.56.79-4.32,5.61-4.41,5.87-.28.87-.28,2.28-1.5,2.54-.66.61-3.38,4.47-3.85,4.47-2.25,0-4.13-2.54-4.13-4.47Z"/>
    <path class="cls-3" d="M502.04,385.52c-2.72-.97-4.13-3.5-4.51-6.13-.47-.61-.84-1.4-.84-2.19,0-10.34.84-17.08,8.64-25.05.75-.7,3.19-3.42,4.04-3.59,1.03-.7,1.5-1.23,2.81-1.23l1.5.09c.75,0,2.25-1.22,2.91-.79.47-.17.85-.17,1.31-.17,3.66,0,8.45,2.1,8.45,6.13,0,7.36-11.26,16.64-17.84,19.53-1.03,1.14-1.03,3.77-1.03,5.17,0,3.07-.56,5.96,3.76,5.96s12.67-6.83,15.11-9.99c1.31-1.66,3-3.59,4.13-5.34.75-1.05,3.38-5.52,4.5-5.96.47-.18.84-.26,1.31-.35l.28-.18c.28,0,.28.7.28.79,0,1.14-1.5,2.63-2.16,3.5-1.03,1.4-2.35,3.07-3.19,4.56-.19.35-.28.87-.47,1.23-1.6,2.28-3.85,4.38-5.63,6.57-2.82,3.42-10.42,9.28-15.11,9.28-2.63,0-6.1-.44-8.26-1.84ZM521.94,354.24l-.94-.7c-3.1.79-9.2,11.48-10.14,14.37,4.13-1.93,10.8-9.2,11.08-13.67Z"/>
    <path class="cls-3" d="M535.18,385.52c-2.72-.97-4.13-3.5-4.51-6.13-.47-.61-.84-1.4-.84-2.19,0-10.34.84-17.08,8.64-25.05.75-.7,3.19-3.42,4.04-3.59,1.03-.7,1.5-1.23,2.81-1.23l1.5.09c.75,0,2.25-1.22,2.91-.79.47-.17.85-.17,1.31-.17,3.66,0,8.45,2.1,8.45,6.13,0,7.36-11.26,16.64-17.84,19.53-1.03,1.14-1.03,3.77-1.03,5.17,0,3.07-.56,5.96,3.76,5.96s12.67-6.83,15.11-9.99c1.31-1.66,3-3.59,4.13-5.34.75-1.05,3.38-5.52,4.5-5.96.47-.18.84-.26,1.31-.35l.28-.18c.28,0,.28.7.28.79,0,1.14-1.5,2.63-2.16,3.5-1.03,1.4-2.35,3.07-3.19,4.56-.19.35-.28.87-.47,1.23-1.6,2.28-3.85,4.38-5.63,6.57-2.82,3.42-10.42,9.28-15.11,9.28-2.63,0-6.1-.44-8.26-1.84ZM555.08,354.24l-.94-.7c-3.1.79-9.2,11.48-10.14,14.37,4.13-1.93,10.8-9.2,11.08-13.67Z"/>
  </g>
</svg>