<?xml version="1.0" encoding="UTF-8"?>
<svg id="Layer_1" data-name="Layer 1" xmlns="http://www.w3.org/2000/svg" xmlns:xlink="http://www.w3.org/1999/xlink" viewBox="0 0 600 600">
  <defs>
    <style>
      .cls-1 {
        fill: url(#linear-gradient-5);
      }

      .cls-1, .cls-2, .cls-3, .cls-4, .cls-5, .cls-6, .cls-7, .cls-8 {
        stroke-width: 0px;
      }

      .cls-2 {
        fill: none;
      }

      .cls-9 {
        fill: url(#linear-gradient);
        stroke-width: .75px;
      }

      .cls-9, .cls-10 {
        stroke: #fff;
        stroke-miterlimit: 10;
      }

      .cls-3 {
        fill: url(#radial-gradient);
        fill-rule: evenodd;
      }

      .cls-4 {
        fill: url(#linear-gradient-2);
      }

      .cls-11 {
        clip-path: url(#clippath);
      }

      .cls-5 {
        fill: #eee2ba;
      }

      .cls-6 {
        fill: #38393a;
      }

      .cls-7 {
        fill: #fff;
      }

      .cls-10 {
        fill: url(#linear-gradient-3);
      }

      .cls-8 {
        fill: url(#linear-gradient-4);
      }
    </style>
    <linearGradient id="linear-gradient" x1="291.34" y1="260.11" x2="370.68" y2="260.11" gradientUnits="userSpaceOnUse">
      <stop offset="0" stop-color="#fff"/>
      <stop offset=".09" stop-color="#d3cfc8"/>
      <stop offset=".19" stop-color="#a7a093"/>
      <stop offset=".29" stop-color="#837966"/>
      <stop offset=".39" stop-color="#675b44"/>
      <stop offset=".48" stop-color="#53452b"/>
      <stop offset=".56" stop-color="#47381c"/>
      <stop offset=".63" stop-color="#433417"/>
    </linearGradient>
    <linearGradient id="linear-gradient-2" x1="40.8" y1="366.1" x2="306.5" y2="366.1" gradientUnits="userSpaceOnUse">
      <stop offset=".07" stop-color="#433417"/>
      <stop offset=".24" stop-color="#eee2ba"/>
      <stop offset=".26" stop-color="#d3c7a0"/>
      <stop offset=".3" stop-color="#a79a77"/>
      <stop offset=".34" stop-color="#837554"/>
      <stop offset=".38" stop-color="#675839"/>
      <stop offset=".42" stop-color="#534426"/>
      <stop offset=".46" stop-color="#47381a"/>
      <stop offset=".5" stop-color="#433417"/>
      <stop offset=".85" stop-color="#eee2ba"/>
      <stop offset=".96" stop-color="#433417"/>
    </linearGradient>
    <clipPath id="clippath">
      <rect class="cls-2" x="40.16" y="240.35" width="224.55" height="79.88"/>
    </clipPath>
    <radialGradient id="radial-gradient" cx="152.42" cy="280.37" fx="152.42" fy="280.37" r="84.2" gradientUnits="userSpaceOnUse">
      <stop offset="0" stop-color="#433417"/>
      <stop offset=".28" stop-color="#eee2ba"/>
      <stop offset=".3" stop-color="#d3c7a0"/>
      <stop offset=".34" stop-color="#a79a77"/>
      <stop offset=".39" stop-color="#837554"/>
      <stop offset=".43" stop-color="#675839"/>
      <stop offset=".48" stop-color="#534426"/>
      <stop offset=".52" stop-color="#47381a"/>
      <stop offset=".56" stop-color="#433417"/>
      <stop offset=".8" stop-color="#eee2ba"/>
      <stop offset=".96" stop-color="#433417"/>
    </radialGradient>
    <linearGradient id="linear-gradient-3" x1="275.03" y1="326.43" x2="361.03" y2="368.17" gradientUnits="userSpaceOnUse">
      <stop offset=".12" stop-color="#eee2ba"/>
      <stop offset=".32" stop-color="#e99f87"/>
      <stop offset=".62" stop-color="#e24442"/>
      <stop offset=".75" stop-color="#e02027"/>
    </linearGradient>
    <linearGradient id="linear-gradient-4" x1="384.96" y1="188.42" x2="411.62" y2="188.42" gradientUnits="userSpaceOnUse">
      <stop offset=".05" stop-color="#fff"/>
      <stop offset=".19" stop-color="#c9c4bc"/>
      <stop offset=".34" stop-color="#999181"/>
      <stop offset=".48" stop-color="#746953"/>
      <stop offset=".59" stop-color="#594c32"/>
      <stop offset=".69" stop-color="#483a1e"/>
      <stop offset=".76" stop-color="#433417"/>
    </linearGradient>
    <linearGradient id="linear-gradient-5" x1="65.54" y1="223.73" x2="198.13" y2="223.73" gradientTransform="translate(26.49 -13.63) rotate(6.58)" gradientUnits="userSpaceOnUse">
      <stop offset="0" stop-color="#fff"/>
      <stop offset=".13" stop-color="#d4d1cb"/>
      <stop offset=".32" stop-color="#978e7e"/>
      <stop offset=".49" stop-color="#695d46"/>
      <stop offset=".61" stop-color="#4d3f24"/>
      <stop offset=".68" stop-color="#433417"/>
    </linearGradient>
  </defs>
  <g id="z">
    <path class="cls-5" d="M481.37,234c-5.02,0-9.34-1.61-12.94-4.83-3.61-3.22-5.41-7.88-5.41-14v-10.35l18.64.02v3.27c0,2.67.1,4.36,1.35,5.07,1.26.7,3.3,1.05,6.13,1.05h63.04l-58.12,83.75-4.69-4.94h61.87v19.76h-92.94c12.78-20.25,35.64-52.34,59.52-85.64l3.77,6.83h-40.23Z"/>
  </g>
  <g id="t">
    <path class="cls-5" d="M431.52,161.46h24.23v43.52h26.35v19.06h-26.35v79.28h-24.23v-79.28l-21.06-17.28-18.3-15.8,39.36,14.03v-43.52Z"/>
  </g>
  <g id="Bubble-small">
    <circle class="cls-5" cx="394.75" cy="186.89" r="13.33"/>
  </g>
  <g id="i">
    <path class="cls-5" d="M380.21,206.94h24.23v98.57h-24.23v-98.57Z"/>
  </g>
  <g id="b">
    <path class="cls-5" d="M325.87,309.39c-8.93,0-16.73-1.84-23.4-5.53-6.67-3.69-12.04-8.35-16.12-14l2.59-6.83v24h-24.23V124.24h24v105.63l-.47-8.7c3.76-5.02,9.25-9.1,16.47-12.23,7.21-3.14,15.29-4.71,24.23-4.71s16.81,2.12,24.1,6.36c7.3,4.23,13.11,10.23,17.42,17.99,4.31,7.76,6.46,16.97,6.46,27.64s-2.35,20.47-7.06,28.47c-4.7,8-10.93,14.11-18.69,18.35-7.76,4.23-16.2,6.35-25.3,6.35ZM320.7,288.92c5.96,0,11.32-1.41,16.1-4.23,4.79-2.83,8.59-6.75,11.41-11.76,2.83-5.02,4.24-10.67,4.24-16.95s-1.41-11.6-4.24-16.47c-2.82-4.86-6.62-8.75-11.41-11.64-4.78-2.9-10.15-4.36-16.1-4.36-5.18,0-9.97.94-14.36,2.82-4.39,1.88-8.07,4.47-11.06,7.77-2.98,3.3-5.09,7.14-6.35,11.52v20.94c1.26,4.39,3.37,8.27,6.35,11.64,2.98,3.37,6.63,6,10.94,7.88,4.32,1.88,9.14,2.82,14.48,2.82Z"/>
  </g>
  <g id="r">
    <path class="cls-5" d="M222.47,179.64l2.35,28.22-1.18-3.76c2.67-5.97,6.43-11.06,11.29-15.3,4.86-4.23,9.92-7.48,15.18-9.75,5.25-2.28,9.68-3.42,13.29-3.42l-1.17,24c-7.54-.47-14.09.95-19.65,4.24-5.57,3.29-9.92,7.67-13.06,13.16-3.13,5.49-4.69,11.37-4.69,17.65v43.52h-24v-98.57h21.64Z"/>
  </g>
  <g id="i-2" data-name="i">
    <path class="cls-6" d="M386.17,210.83h24.23v98.57h-24.23v-98.57Z"/>
  </g>
  <g id="r-2" data-name="r">
    <path class="cls-6" d="M226.89,182.35l2.35,28.22-1.18-3.76c2.67-5.97,6.43-11.06,11.29-15.3,4.86-4.23,9.92-7.48,15.18-9.75,5.25-2.28,9.68-3.42,13.29-3.42l-1.17,24c-7.54-.47-14.09.95-19.65,4.24-5.57,3.29-9.92,7.67-13.06,13.16-3.13,5.49-4.69,11.37-4.69,17.65v43.52h-24v-98.57h21.64Z"/>
  </g>
  <g id="b-2" data-name="b">
    <path class="cls-6" d="M331.46,313.28c-8.93,0-16.73-1.84-23.4-5.53-6.67-3.69-12.04-8.35-16.12-14l2.59-6.83v24h-24.23v-182.8h24v105.63l-.47-8.7c3.76-5.02,9.25-9.1,16.47-12.23,7.21-3.14,15.29-4.71,24.23-4.71s16.81,2.12,24.1,6.36c7.3,4.23,13.11,10.23,17.42,17.99,4.31,7.76,6.46,16.97,6.46,27.64s-2.35,20.47-7.06,28.47c-4.7,8-10.93,14.11-18.69,18.35-7.76,4.23-16.2,6.35-25.3,6.35ZM326.3,292.81c5.96,0,11.32-1.41,16.1-4.23,4.79-2.83,8.59-6.75,11.41-11.76,2.83-5.02,4.24-10.67,4.24-16.95s-1.41-11.6-4.24-16.47c-2.82-4.86-6.62-8.75-11.41-11.64-4.78-2.9-10.15-4.36-16.1-4.36-5.18,0-9.97.94-14.36,2.82-4.39,1.88-8.07,4.47-11.06,7.77-2.98,3.3-5.09,7.14-6.35,11.52v20.94c1.26,4.39,3.37,8.27,6.35,11.64,2.98,3.37,6.63,6,10.94,7.88,4.32,1.88,9.14,2.82,14.48,2.82Z"/>
  </g>
  <g id="t-2" data-name="t">
    <path class="cls-6" d="M438.89,168.2h24.23v43.52h26.35v19.06h-26.35v79.28h-24.23v-79.28l-21.06-17.28-18.3-15.8,39.36,14.03v-43.52Z"/>
  </g>
  <g id="z-2" data-name="z">
    <path class="cls-6" d="M489.19,242c-5.02,0-9.34-1.61-12.94-4.83-3.61-3.22-5.41-7.88-5.41-14v-10.35l18.64.02v3.27c0,2.67.1,4.36,1.35,5.07,1.26.7,3.3,1.05,6.13,1.05h63.04l-58.12,83.75-4.69-4.94h61.87v19.76h-92.94c12.78-20.25,35.64-52.34,59.52-85.64l3.77,6.83h-40.23Z"/>
  </g>
  <g id="Bubble-small-2" data-name="Bubble-small">
    <circle class="cls-9" cx="331.01" cy="260.11" r="39.67"/>
    <circle class="cls-7" cx="313.26" cy="242.97" r="10.58"/>
  </g>
  <path class="cls-4" d="M306.5,347.85c-28.44,54.46-79.23,91.17-123.34,91.17-57.67,0-126.74-62.74-142.36-145.85,25.17,71.51,91.44,122.83,147.71,122.83,40.5,0,86.18-26.59,117.99-68.15"/>
  <g class="cls-11">
    <path class="cls-3" d="M264.69,312.32c-23.34,4.88-52.11,7.76-83.23,7.76-78.04,0-141.3-18.12-141.3-40.48,0-18.51,43.37-34.11,102.58-38.94-50.19,6.05-85.42,20.22-85.42,36.75,0,22.02,62.58,39.87,139.75,39.87,24.53,0,47.57-1.81,67.61-4.97"/>
  </g>
  <g id="Maple">
    <path class="cls-10" d="M289.56,374.03c.15,0,.3.06.4.18l16.66,19.5,5.51-12.36c.08-.18.27-.3.47-.29l37.59,1.45c-1.59-2.74-3.18-5.45-4.76-8.04-.14-.23-.08-.52.14-.66h0l14.72-10.11-16.93-6.47c-.24-.09-.38-.36-.31-.61.84-2.83,1.67-5.82,2.51-8.87l-23.3,6.42c-.22.06-.46-.04-.58-.24-.11-.2-.08-.45.09-.61l12.09-11.01c4.96-4.52,9.91-9.03,14.87-13.54-3.41-1.07-6.77-2.08-10.01-3.02-.24-.07-.4-.31-.36-.56l2.54-18.74-17.55,7.05c-.23.09-.5,0-.63-.22-1.69-2.9-3.5-5.91-5.37-8.97-5.73,10.72-11.47,21.43-17.21,32.15-.11.2-.34.3-.57.24-.22-.06-.38-.27-.38-.5l.53-24.17c-2.72,1.53-5.41,3.07-7.99,4.6-.23.13-.52.07-.67-.15l-10.41-14.84-6.2,16.75c-.09.25-.36.37-.61.3-2.9-.89-5.91-1.78-8.96-2.65,3.35,11.4,6.7,22.8,10.05,34.2l.56,1.9c.06.19,0,.4-.17.53l-10.63,8.37,25.26,13.16s-2.22-1.74-2.19-1.72c.09.07.16.18.18.29"/>
  </g>
  <g id="Bubble-small-3" data-name="Bubble-small">
    <circle class="cls-8" cx="398.29" cy="188.42" r="13.33"/>
    <circle class="cls-7" cx="392.33" cy="182.66" r="3.55"/>
  </g>
  <g id="Back">
    <ellipse class="cls-5" cx="124.38" cy="223.73" rx="68.93" ry="69.12" transform="translate(-24.81 15.72) rotate(-6.58)"/>
  </g>
  <g id="Bubble">
    <ellipse class="cls-1" cx="131.84" cy="223.73" rx="66.29" ry="66.47" transform="translate(-24.76 16.57) rotate(-6.58)"/>
    <ellipse class="cls-7" cx="149.85" cy="186.58" rx="17.68" ry="17.73" transform="translate(-50.46 55.65) rotate(-18.06)"/>
  </g>
</svg>