<?xml version="1.0" encoding="UTF-8"?>
<svg id="Layer_1" data-name="Layer 1" xmlns="http://www.w3.org/2000/svg" xmlns:xlink="http://www.w3.org/1999/xlink" viewBox="0 0 600 600">
  <defs>
    <style>
      .cls-1 {
        fill: url(#linear-gradient-5);
      }

      .cls-1, .cls-2, .cls-3, .cls-4, .cls-5, .cls-6, .cls-7, .cls-8, .cls-9 {
        stroke-width: 0px;
      }

      .cls-2 {
        fill: none;
      }

      .cls-10 {
        fill: url(#linear-gradient);
        stroke-width: .75px;
      }

      .cls-10, .cls-11 {
        stroke: #fff;
        stroke-miterlimit: 10;
      }

      .cls-3 {
        fill: url(#radial-gradient);
        fill-rule: evenodd;
      }

      .cls-4 {
        fill: url(#linear-gradient-2);
      }

      .cls-12 {
        clip-path: url(#clippath);
      }

      .cls-5 {
        fill: #eee2ba;
      }

      .cls-6 {
        fill: #38393a;
      }

      .cls-7 {
        fill: #fff;
      }

      .cls-11 {
        fill: url(#linear-gradient-3);
      }

      .cls-8 {
        fill: url(#linear-gradient-4);
      }

      .cls-9 {
        fill: #e26160;
      }
    </style>
    <linearGradient id="linear-gradient" x1="286.88" y1="263.24" x2="365.85" y2="263.24" gradientUnits="userSpaceOnUse">
      <stop offset="0" stop-color="#fff"/>
      <stop offset=".09" stop-color="#d3cfc8"/>
      <stop offset=".19" stop-color="#a7a093"/>
      <stop offset=".29" stop-color="#837966"/>
      <stop offset=".39" stop-color="#675b44"/>
      <stop offset=".48" stop-color="#53452b"/>
      <stop offset=".56" stop-color="#47381c"/>
      <stop offset=".63" stop-color="#433417"/>
    </linearGradient>
    <linearGradient id="linear-gradient-2" x1="37.52" y1="368.73" x2="301.97" y2="368.73" gradientUnits="userSpaceOnUse">
      <stop offset=".07" stop-color="#433417"/>
      <stop offset=".24" stop-color="#eee2ba"/>
      <stop offset=".26" stop-color="#d3c7a0"/>
      <stop offset=".3" stop-color="#a79a77"/>
      <stop offset=".34" stop-color="#837554"/>
      <stop offset=".38" stop-color="#675839"/>
      <stop offset=".42" stop-color="#534426"/>
      <stop offset=".46" stop-color="#47381a"/>
      <stop offset=".5" stop-color="#433417"/>
      <stop offset=".85" stop-color="#eee2ba"/>
      <stop offset=".96" stop-color="#433417"/>
    </linearGradient>
    <clipPath id="clippath">
      <rect class="cls-2" x="36.88" y="243.57" width="223.5" height="79.5"/>
    </clipPath>
    <radialGradient id="radial-gradient" cx="148.62" cy="283.41" fx="148.62" fy="283.41" r="83.81" gradientUnits="userSpaceOnUse">
      <stop offset="0" stop-color="#433417"/>
      <stop offset=".28" stop-color="#eee2ba"/>
      <stop offset=".3" stop-color="#d3c7a0"/>
      <stop offset=".34" stop-color="#a79a77"/>
      <stop offset=".39" stop-color="#837554"/>
      <stop offset=".43" stop-color="#675839"/>
      <stop offset=".48" stop-color="#534426"/>
      <stop offset=".52" stop-color="#47381a"/>
      <stop offset=".56" stop-color="#433417"/>
      <stop offset=".8" stop-color="#eee2ba"/>
      <stop offset=".96" stop-color="#433417"/>
    </radialGradient>
    <linearGradient id="linear-gradient-3" x1="270.65" y1="329.24" x2="356.24" y2="370.79" gradientUnits="userSpaceOnUse">
      <stop offset=".12" stop-color="#eee2ba"/>
      <stop offset=".32" stop-color="#e99f87"/>
      <stop offset=".62" stop-color="#e24442"/>
      <stop offset=".75" stop-color="#e02027"/>
    </linearGradient>
    <linearGradient id="linear-gradient-4" x1="380.07" y1="191.89" x2="406.6" y2="191.89" gradientUnits="userSpaceOnUse">
      <stop offset=".05" stop-color="#fff"/>
      <stop offset=".19" stop-color="#c9c4bc"/>
      <stop offset=".34" stop-color="#999181"/>
      <stop offset=".48" stop-color="#746953"/>
      <stop offset=".59" stop-color="#594c32"/>
      <stop offset=".69" stop-color="#483a1e"/>
      <stop offset=".76" stop-color="#433417"/>
    </linearGradient>
    <linearGradient id="linear-gradient-5" x1="62.14" y1="227.03" x2="194.11" y2="227.03" gradientTransform="translate(26.85 -13.18) rotate(6.58)" gradientUnits="userSpaceOnUse">
      <stop offset="0" stop-color="#fff"/>
      <stop offset=".13" stop-color="#d4d1cb"/>
      <stop offset=".32" stop-color="#978e7e"/>
      <stop offset=".49" stop-color="#695d46"/>
      <stop offset=".61" stop-color="#4d3f24"/>
      <stop offset=".68" stop-color="#433417"/>
    </linearGradient>
  </defs>
  <g>
    <path class="cls-9" d="M364.65,404.65c0-1.97,1.42-3.13,1.6-4.37.85-4.37,1.89-8.75,2.64-13.21,1.6-9.91,1.88-19.9,3.11-29.81.66-5.35,1.23-10.71,1.7-16.06.28-3.48.94-6.79.94-10.36,0-1.61-.28-3.48,0-5.09.47-2.59,4.34-3.66,6.6-3.66.75,0,1.41.09,2.17.18,1.41,1.07,3.2,1.61,4.24,3.13,1.41,2.14,1.88,9.64,1.88,12.32v1.16c1.32-1.61,2.74-3.21,4.34-4.55.57-.45,1.51-.98,1.88-1.52.85-1.07,1.6-2.41,2.64-3.3,2.73-2.41,6.98-4.46,10.75-4.46,2.73,0,6.22.62,8.01,2.77.75.89,1.88,1.52,2.54,2.32,2.55,3.39,4.43,8.48,4.43,12.68,0,1.79-.94,3.66-.94,5.27,0,.27,0,.45.09.71-.28,2.23-1.32,4.28-2.17,6.34-1.04,2.32-8.01,12.94-10.46,12.77-1.98,2.23-8.39,5.45-11.5,5.53-.28.09-.66.27-.94.27-.57,0-2.73-1.25-2.83-1.78-.47-.45-.75-.89-1.13-1.43-.85-.27-.94-5.18-.94-6.07,0-.35,0-.71.09-.98.47-.18.85-.36,1.32-.45.19.71-.09.89.47,1.61,1.41-.09,2.36-2.41,3.2-2.59l.28.18c.66,0,1.6-1.34,2.45-1.43,1.04-.09,3.02-4.02,3.49-5,3.01-6.16,4.15-13.21,4.15-19.91,0-1.25.09-5.09-1.89-5.09-.57,0-1.13,0-1.7.09-.19-.18-.66-.44-.94-.44-.75,0-3.3.8-3.77,1.16-2.17,1.79-3.02,3.22-4.52,5.63-.94.62-2.83,1.79-3.21,2.86l-2.36,2.77c.19,1.16-1.41,2.86-1.41,3.84,0,.8.28,1.7.28,2.5,0,.71-.66.98-.66,1.7,0,1.16.75,2.14.75,3.22,0,3.3-.38,6.6-.38,9.91,0,.53.19,1.07.19,1.7,0,2.95-2.36,19.73-3.49,21.96-.19.35-.57.8-.66.8-.57,2.86-1.32,5.71-1.32,8.66,0,.62.09,2.5.38,3.12-.28.36-.66.62-.85,1.07v.18c-.38.27-.75.53-1.13.62-3.3,6.43.57,3.21-6.69,6.16-1.04,1.07-3.39,1.25-4.9,1.25-2.74,0-5.85-2.05-5.85-4.82Z"/>
    <path class="cls-9" d="M405.09,407.6c-2.74-.98-4.15-3.57-4.53-6.25-.47-.62-.85-1.43-.85-2.23,0-10.53.85-17.41,8.67-25.53.75-.71,3.2-3.48,4.05-3.66,1.04-.71,1.51-1.25,2.83-1.25l1.51.09c.75,0,2.26-1.25,2.92-.8.47-.18.85-.18,1.32-.18,3.68,0,8.49,2.14,8.49,6.25,0,7.49-11.31,16.96-17.91,19.9-1.04,1.16-1.04,3.84-1.04,5.27,0,3.12-.57,6.07,3.77,6.07s12.72-6.96,15.18-10.18c1.32-1.7,3.01-3.66,4.14-5.44.75-1.07,3.39-5.62,4.53-6.07.47-.18.85-.27,1.32-.36l.28-.18c.28,0,.28.71.28.8,0,1.16-1.51,2.68-2.17,3.57-1.04,1.43-2.36,3.12-3.21,4.64-.19.36-.28.89-.47,1.25-1.6,2.32-3.87,4.46-5.66,6.69-2.83,3.48-10.46,9.46-15.18,9.46-2.64,0-6.13-.44-8.29-1.87ZM425.07,375.73l-.94-.71c-3.11.8-9.24,11.69-10.18,14.64,4.15-1.97,10.84-9.37,11.12-13.92Z"/>
    <path class="cls-9" d="M454.29,401.61c-.66-2.05-.47-4.19-.75-6.25.1-.18.19-.54.19-.71l-1.32,1.79c-.66,1.34-3.96,7.76-6.13,7.94-.85.63-2.45,1.97-3.58,1.97-5.94,0-11.4-3.66-11.4-9.64,0-7.32,7.82-20.89,15.46-24.1,1.98-1.34,6.22-2.86,8.76-2.86,2.07,0,8.01,3.66,8.01,5.89,0,.62-.47,1.16-1.13,1.34-5.84-.98-13.01,4.64-15.18,9.37l-2.07,4.11c-.57,1.16-2.64,5-2.73,6.07-.19.54-.47,1.25-.47,1.79l.1.09c.38,1.43.09,4.02,2.17,4.02,1.41,0,2.83-1.25,3.68-2.23,1.98-2.23,7.35-12.67,8.39-15.71.38-1.25,1.32-2.14,1.79-3.3,0-1.34,4.24-1.34,5.28-1.34,1.41,0,2.64.36,3.77,1.25,0,.09.1.27.1.44.57.45,1.13.89,1.13,1.52,0,.89-1.51,3.48-1.6,4.64-.19,1.52-.75,2.68-.85,4.28-.1,1.25-.47,2.41-.94,3.57-.47,1.07-2.73,7.41-2.73,7.5,0,.54,1.03.54,1.41.54,6.03,0,14.61-21.51,17.53-21.51.47,0,.94.45.94.89,0,.36,0,.63-.09.98-.09.44-10.46,15.62-11.59,17.41-1.79,2.77-5.84,6.07-9.43,6.07-2.92,0-5.84-3.39-6.69-5.8Z"/>
    <path class="cls-9" d="M475.31,389.83c0-2.41.47-5.45,1.32-7.67,2.07-5.27,9.71-17.59,16.68-17.59,1.23,0,2.83.36,3.39,1.61.85-.54,1.6-1.07,2.55-1.52,1.6.18,2.83,4.91,2.83,6.07,0,3.57-1.98,4.19-1.98,6.87,0,1.43.09,1.7-1.7,1.7-2.64,0-3.96-2.68-4.62-4.73-.57.62-.75,1.7-1.04,2.5-.38.98-1.23,2.14-1.7,3.12-2.26,4.55-4.52,8.48-4.52,13.66,0,2.68,1.13,7.76,4.81,7.76.38,0,.85-.18,1.13-.44,3.86,1.7,14.51-13.66,16.31-16.87.66-1.16,3.11-5.63,4.71-5.63.57,0,1.22.36,1.22.98,0,2.05-4.62,8.21-5.84,9.73-1.04,1.88-2.83,3.93-4.33,5.63-1.23,1.43-2.07,3.03-3.21,4.46-2.54,3.13-6.97,5.8-11.21,5.8-8.2,0-14.8-8.12-14.8-15.44Z"/>
    <path class="cls-9" d="M505.29,400.37c0-.98.1-1.97.38-2.95-.19-1.07-.57-2.32-.57-3.39,0-2.06,1.32-4.82,1.32-6.61,0-7.76,5.28-14.46,5.09-22.32,1.23-2.41,2.64-5.27,3.39-7.85.09-.18.19-.8.28-.98,2.07-3.75,3.87-7.14,5.28-11.07.19-.62.94-3.03,1.79-3.03,2.64,0,5.56,4.1,5.56,6.43,0,.89-.09,1.79-.38,2.68.66.8,1.88,2.59,1.88,3.66,0,3.21-2.55,5.18-4.05,7.68-.94,1.52-6.41,14.91-6.6,16.24,2.26-2.14,4.62-4.91,7.35-6.61,2.74-1.87,5.85-3.48,9.43-3.48,3.77,0,6.32,3.13,6.32,6.61,0,1.43-.47,2.86-1.04,4.1l.28,2.59-2.83,6.07c.19,1.88,0,3.84-1.51,5.09-.85,1.43-2.45,4.19-2.45,5.89,0,.71.19,1.07,1.04,1.07,5.09,0,12.91-11.78,14.99-15.53.66-1.34,3.11-6.34,4.9-6.34.57,0,.85.35.85.89,0,.71-.66,1.88-1.04,2.5-1.6,3.48-3.3,7.41-5.75,10.44-1.88,2.32-8.67,10.35-11.59,10.35-1.13,0-5.47-.54-6.41-1.07-3.58-.63-5.56-5.71-5.56-8.75,0-2.59,1.04-5.18,1.04-7.76l-.1-1.25c.47-1.07,3.49-8.39,3.49-10.35,0-.18-.1-.27-.28-.27-1.32.89-6.88,5.18-6.88,6.43v.45c-1.22,2.23-2.73,4.28-4.05,6.43.47,1.7.19,3.75.38,5.45-.57.8-4.33,5.71-4.43,5.98-.29.89-.29,2.32-1.51,2.59-.66.62-3.39,4.55-3.87,4.55-2.26,0-4.15-2.59-4.15-4.55Z"/>
  </g>
  <g id="z">
    <path class="cls-5" d="M476.02,237.25c-5,0-9.29-1.6-12.88-4.8-3.59-3.2-5.39-7.85-5.39-13.93v-10.31l18.55.02v3.26c0,2.66.1,4.34,1.34,5.05,1.25.7,3.28,1.05,6.1,1.05h62.75l-57.84,83.36-4.67-4.92h61.59v19.66h-92.5c12.72-20.16,35.47-52.1,59.24-85.24l3.76,6.8h-40.04Z"/>
  </g>
  <g id="t">
    <path class="cls-5" d="M426.4,165.05h24.12v43.32h26.23v18.97h-26.23v78.91h-24.12v-78.91l-20.96-17.2-18.21-15.73,39.17,13.96v-43.32Z"/>
  </g>
  <g id="Bubble-small">
    <circle class="cls-5" cx="389.81" cy="190.36" r="13.27"/>
  </g>
  <g id="i">
    <path class="cls-5" d="M375.34,210.31h24.12v98.11h-24.12v-98.11Z"/>
  </g>
  <g id="b">
    <path class="cls-5" d="M321.25,312.29c-8.89,0-16.65-1.83-23.29-5.5-6.64-3.67-11.99-8.31-16.04-13.93l2.58-6.8v23.89h-24.12v-181.95h23.89v105.14l-.47-8.66c3.74-5,9.21-9.05,16.39-12.17,7.18-3.12,15.22-4.69,24.12-4.69s16.73,2.11,23.99,6.33c7.27,4.21,13.05,10.18,17.34,17.9,4.29,7.73,6.43,16.9,6.43,27.51s-2.34,20.37-7.03,28.34c-4.68,7.96-10.88,14.05-18.6,18.27-7.73,4.21-16.12,6.32-25.18,6.32ZM316.11,291.91c5.93,0,11.27-1.4,16.03-4.21,4.76-2.81,8.55-6.71,11.35-11.7,2.81-5,4.22-10.62,4.22-16.87s-1.41-11.55-4.22-16.39c-2.81-4.84-6.59-8.7-11.35-11.59-4.76-2.89-10.1-4.34-16.03-4.34-5.15,0-9.92.94-14.29,2.81-4.37,1.87-8.03,4.45-11,7.73-2.96,3.28-5.07,7.1-6.32,11.47v20.84c1.25,4.37,3.36,8.23,6.32,11.59,2.97,3.36,6.6,5.98,10.89,7.85,4.3,1.87,9.1,2.81,14.41,2.81Z"/>
  </g>
  <g id="r">
    <path class="cls-5" d="M218.33,183.15l2.34,28.09-1.18-3.74c2.66-5.94,6.4-11.01,11.24-15.23,4.84-4.21,9.88-7.45,15.11-9.71,5.23-2.27,9.64-3.41,13.23-3.41l-1.16,23.89c-7.5-.47-14.02.94-19.56,4.22-5.54,3.27-9.88,7.64-13,13.1-3.11,5.47-4.67,11.32-4.67,17.57v43.32h-23.89v-98.11h21.54Z"/>
  </g>
  <g id="i-2" data-name="i">
    <path class="cls-6" d="M381.27,214.18h24.12v98.11h-24.12v-98.11Z"/>
  </g>
  <g id="r-2" data-name="r">
    <path class="cls-6" d="M222.74,185.84l2.34,28.09-1.18-3.74c2.66-5.94,6.4-11.01,11.24-15.23,4.84-4.21,9.88-7.45,15.11-9.71,5.23-2.27,9.64-3.41,13.23-3.41l-1.16,23.89c-7.5-.47-14.02.94-19.56,4.22-5.54,3.27-9.88,7.64-13,13.1-3.11,5.47-4.67,11.32-4.67,17.57v43.32h-23.89v-98.11h21.54Z"/>
  </g>
  <g id="b-2" data-name="b">
    <path class="cls-6" d="M326.82,316.16c-8.89,0-16.65-1.83-23.29-5.5-6.64-3.67-11.99-8.31-16.04-13.93l2.58-6.8v23.89h-24.12v-181.95h23.89v105.14l-.47-8.66c3.74-5,9.21-9.05,16.39-12.17,7.18-3.12,15.22-4.69,24.12-4.69s16.73,2.11,23.99,6.33c7.27,4.21,13.05,10.18,17.34,17.9,4.29,7.73,6.43,16.9,6.43,27.51s-2.34,20.37-7.03,28.34c-4.68,7.96-10.88,14.05-18.6,18.27-7.73,4.21-16.12,6.32-25.18,6.32ZM321.68,295.78c5.93,0,11.27-1.4,16.03-4.21,4.76-2.81,8.55-6.71,11.35-11.7,2.81-5,4.22-10.62,4.22-16.87s-1.41-11.55-4.22-16.39c-2.81-4.84-6.59-8.7-11.35-11.59-4.76-2.89-10.1-4.34-16.03-4.34-5.15,0-9.92.94-14.29,2.81-4.37,1.87-8.03,4.45-11,7.73-2.96,3.28-5.07,7.1-6.32,11.47v20.84c1.25,4.37,3.36,8.23,6.32,11.59,2.97,3.36,6.6,5.98,10.89,7.85,4.3,1.87,9.1,2.81,14.41,2.81Z"/>
  </g>
  <g id="t-2" data-name="t">
    <path class="cls-6" d="M433.75,171.76h24.12v43.32h26.23v18.97h-26.23v78.91h-24.12v-78.91l-20.96-17.2-18.21-15.73,39.17,13.96v-43.32Z"/>
  </g>
  <g id="z-2" data-name="z">
    <path class="cls-6" d="M483.81,245.21c-5,0-9.29-1.6-12.88-4.8-3.59-3.2-5.39-7.85-5.39-13.93v-10.31l18.55.02v3.26c0,2.66.1,4.34,1.34,5.05,1.25.7,3.28,1.05,6.1,1.05h62.75l-57.84,83.36-4.67-4.92h61.59v19.66h-92.5c12.72-20.16,35.47-52.1,59.24-85.24l3.76,6.8h-40.04Z"/>
  </g>
  <g id="Bubble-small-2" data-name="Bubble-small">
    <circle class="cls-10" cx="326.37" cy="263.24" r="39.48"/>
    <circle class="cls-7" cx="308.7" cy="246.17" r="10.53"/>
  </g>
  <path class="cls-4" d="M301.97,350.57c-28.3,54.2-78.85,90.74-122.76,90.74-57.4,0-126.14-62.45-141.7-145.16,25.05,71.17,91.02,122.26,147.02,122.26,40.32,0,85.78-26.47,117.44-67.84"/>
  <g class="cls-12">
    <path class="cls-3" d="M260.35,315.2c-23.23,4.86-51.86,7.73-82.84,7.73-77.67,0-140.63-18.04-140.63-40.29,0-18.42,43.16-33.95,102.1-38.75-49.96,6.02-85.02,20.13-85.02,36.57,0,21.92,62.28,39.68,139.1,39.68,24.41,0,47.35-1.8,67.29-4.94"/>
  </g>
  <g id="Maple">
    <path class="cls-11" d="M285.12,376.63c.15,0,.3.06.4.18l16.58,19.41,5.49-12.3c.08-.18.27-.3.47-.29l37.41,1.45c-1.58-2.73-3.17-5.42-4.74-8-.14-.23-.08-.51.14-.66h0l14.65-10.06-16.85-6.44c-.24-.09-.38-.36-.3-.61.83-2.82,1.67-5.79,2.49-8.83l-23.19,6.39c-.22.06-.46-.04-.58-.24-.11-.2-.07-.45.09-.61l12.03-10.96c4.93-4.49,9.87-8.99,14.8-13.48-3.4-1.06-6.74-2.07-9.96-3.01-.24-.07-.39-.31-.36-.55l2.53-18.66-17.47,7.02c-.23.09-.5,0-.62-.22-1.68-2.88-3.48-5.88-5.35-8.92-5.71,10.67-11.42,21.33-17.13,32-.11.2-.34.3-.56.24-.22-.06-.38-.27-.38-.5l.52-24.05c-2.71,1.52-5.38,3.06-7.95,4.58-.23.13-.52.07-.67-.15l-10.36-14.77-6.17,16.67c-.09.24-.36.37-.61.3-2.88-.89-5.88-1.77-8.91-2.64,3.33,11.34,6.67,22.69,10,34.04l.56,1.9c.06.19,0,.4-.17.52l-10.58,8.33,25.14,13.1"/>
  </g>
  <g id="Bubble-small-3" data-name="Bubble-small">
    <circle class="cls-8" cx="393.33" cy="191.89" r="13.27"/>
    <circle class="cls-7" cx="387.4" cy="186.15" r="3.54"/>
  </g>
  <g id="Back">
    <ellipse class="cls-5" cx="120.71" cy="227.03" rx="68.61" ry="68.8" transform="translate(-25.21 15.32) rotate(-6.58)"/>
  </g>
  <g id="Bubble">
    <ellipse class="cls-1" cx="128.13" cy="227.03" rx="65.98" ry="66.16" transform="translate(-25.16 16.17) rotate(-6.58)"/>
    <ellipse class="cls-7" cx="146.06" cy="190.05" rx="17.59" ry="17.64" transform="translate(-51.72 54.64) rotate(-18.06)"/>
  </g>
</svg>